<svg width="32" height="32" viewBox="0 0 32 32" fill="none" xmlns="http://www.w3.org/2000/svg">
  <g id="moon">
    <path id="Vector"
      d="M28.0374 18.7875C27.973 18.5798 27.8434 18.3983 27.6678 18.27C27.4922 18.1417 27.2799 18.0733 27.0624 18.075L26.7874 18.125C24.997 18.6192 23.1075 18.6296 21.3118 18.1552C19.516 17.6808 17.8782 16.7385 16.5655 15.4245C15.2528 14.1105 14.3121 12.4718 13.8394 10.6756C13.3668 8.8794 13.379 6.98994 13.8749 5.20001C13.8994 5.12751 13.9121 5.05153 13.9124 4.97501C13.9243 4.81369 13.8964 4.65192 13.8311 4.50393C13.7658 4.35593 13.6652 4.22624 13.538 4.12625C13.4109 4.02626 13.2611 3.95904 13.1019 3.93048C12.9427 3.90193 12.7789 3.91293 12.6249 3.96251C10.5234 4.55153 8.61278 5.68051 7.08304 7.23714C5.5533 8.79377 4.45778 10.7238 3.90545 12.8352C3.35312 14.9466 3.36324 17.1659 3.93479 19.2722C4.50635 21.3785 5.61942 23.2984 7.16329 24.8411C8.70715 26.3837 10.628 27.4952 12.7348 28.065C14.8415 28.6349 17.0608 28.6432 19.1718 28.0892C21.2828 27.5351 23.2119 26.438 24.7673 24.907C26.3227 23.376 27.4501 21.4645 28.0374 19.3625C28.1003 19.176 28.1003 18.974 28.0374 18.7875ZM15.9999 26.5C13.6049 26.5019 11.2813 25.685 9.41435 24.1848C7.54745 22.6846 6.24951 20.5913 5.73584 18.252C5.22217 15.9128 5.52364 13.4682 6.59024 11.3239C7.65684 9.17949 9.42447 7.4642 11.5999 6.46251C11.3645 8.34903 11.563 10.2644 12.1802 12.0626C12.7974 13.8607 13.817 15.4943 15.1613 16.8386C16.5056 18.1829 18.1392 19.2025 19.9373 19.8197C21.7355 20.4369 23.6509 20.6354 25.5374 20.4C24.6917 22.218 23.3454 23.7573 21.6562 24.8377C19.967 25.918 18.005 26.4947 15.9999 26.5Z"
      fill="black" />
  </g>
</svg>