<svg width="32" height="32" viewBox="0 0 32 32" fill="none" xmlns="http://www.w3.org/2000/svg">
<g id="sun">
<path id="Vector" d="M16 7.5C14.3189 7.5 12.6755 7.99852 11.2777 8.93251C9.87983 9.8665 8.79037 11.194 8.14702 12.7472C7.50368 14.3004 7.33535 16.0094 7.66333 17.6583C7.9913 19.3071 8.80085 20.8217 9.98959 22.0104C11.1783 23.1992 12.6929 24.0087 14.3417 24.3367C15.9906 24.6647 17.6996 24.4963 19.2528 23.853C20.806 23.2096 22.1335 22.1202 23.0675 20.7223C24.0015 19.3245 24.5 17.6811 24.5 16C24.4967 13.7467 23.6001 11.5866 22.0068 9.99324C20.4134 8.3999 18.2533 7.50331 16 7.5ZM16 22.5C14.7144 22.5 13.4577 22.1188 12.3888 21.4046C11.3199 20.6903 10.4868 19.6752 9.99478 18.4874C9.50281 17.2997 9.37409 15.9928 9.6249 14.7319C9.8757 13.471 10.4948 12.3128 11.4038 11.4038C12.3128 10.4948 13.471 9.8757 14.7319 9.6249C15.9928 9.37409 17.2997 9.50281 18.4874 9.99478C19.6752 10.4868 20.6903 11.3199 21.4046 12.3888C22.1188 13.4577 22.5 14.7144 22.5 16C22.5 17.7239 21.8152 19.3772 20.5962 20.5962C19.3772 21.8152 17.7239 22.5 16 22.5ZM15 4.5V2C15 1.73478 15.1054 1.48043 15.2929 1.29289C15.4804 1.10536 15.7348 1 16 1C16.2652 1 16.5196 1.10536 16.7071 1.29289C16.8946 1.48043 17 1.73478 17 2V4.5C17 4.76522 16.8946 5.01957 16.7071 5.20711C16.5196 5.39464 16.2652 5.5 16 5.5C15.7348 5.5 15.4804 5.39464 15.2929 5.20711C15.1054 5.01957 15 4.76522 15 4.5ZM5.3875 6.8125C5.27825 6.72284 5.18899 6.6113 5.12545 6.48506C5.0619 6.35882 5.0255 6.22067 5.01856 6.07951C5.01163 5.93835 5.03433 5.7973 5.08519 5.66544C5.13606 5.53358 5.21396 5.41383 5.3139 5.3139C5.41383 5.21396 5.53358 5.13606 5.66544 5.08519C5.7973 5.03433 5.93835 5.01163 6.07951 5.01856C6.22067 5.0255 6.35882 5.0619 6.48506 5.12545C6.6113 5.18899 6.72284 5.27825 6.8125 5.3875L8.575 7.1625C8.76201 7.34997 8.86704 7.60395 8.86704 7.86875C8.86704 8.13355 8.76201 8.38753 8.575 8.575C8.38596 8.75902 8.13257 8.86199 7.86875 8.86199C7.60494 8.86199 7.35154 8.75902 7.1625 8.575L5.3875 6.8125ZM4.5 17H2C1.73478 17 1.48043 16.8946 1.29289 16.7071C1.10536 16.5196 1 16.2652 1 16C1 15.7348 1.10536 15.4804 1.29289 15.2929C1.48043 15.1054 1.73478 15 2 15H4.5C4.76522 15 5.01957 15.1054 5.20711 15.2929C5.39464 15.4804 5.5 15.7348 5.5 16C5.5 16.2652 5.39464 16.5196 5.20711 16.7071C5.01957 16.8946 4.76522 17 4.5 17ZM8.575 23.425C8.76201 23.6125 8.86704 23.8665 8.86704 24.1313C8.86704 24.396 8.76201 24.65 8.575 24.8375L6.8125 26.6125C6.62054 26.796 6.36554 26.8989 6.1 26.9C5.83495 26.8964 5.58082 26.7939 5.3875 26.6125C5.19972 26.4229 5.09437 26.1668 5.09437 25.9C5.09437 25.6332 5.19972 25.3771 5.3875 25.1875L7.1625 23.425C7.34997 23.238 7.60395 23.133 7.86875 23.133C8.13355 23.133 8.38753 23.238 8.575 23.425ZM17 27.5V30C17 30.2652 16.8946 30.5196 16.7071 30.7071C16.5196 30.8946 16.2652 31 16 31C15.7348 31 15.4804 30.8946 15.2929 30.7071C15.1054 30.5196 15 30.2652 15 30V27.5C15 27.2348 15.1054 26.9804 15.2929 26.7929C15.4804 26.6054 15.7348 26.5 16 26.5C16.2652 26.5 16.5196 26.6054 16.7071 26.7929C16.8946 26.9804 17 27.2348 17 27.5ZM26.6125 25.1875C26.8003 25.3771 26.9056 25.6332 26.9056 25.9C26.9056 26.1668 26.8003 26.4229 26.6125 26.6125C26.4192 26.7939 26.165 26.8964 25.9 26.9C25.6345 26.8989 25.3795 26.796 25.1875 26.6125L23.425 24.8375C23.2526 24.6473 23.16 24.3981 23.1664 24.1414C23.1727 23.8848 23.2774 23.6405 23.4589 23.4589C23.6405 23.2774 23.8848 23.1727 24.1414 23.1664C24.3981 23.16 24.6473 23.2526 24.8375 23.425L26.6125 25.1875ZM31 16C31 16.2652 30.8946 16.5196 30.7071 16.7071C30.5196 16.8946 30.2652 17 30 17H27.5C27.2348 17 26.9804 16.8946 26.7929 16.7071C26.6054 16.5196 26.5 16.2652 26.5 16C26.5 15.7348 26.6054 15.4804 26.7929 15.2929C26.9804 15.1054 27.2348 15 27.5 15H30C30.2652 15 30.5196 15.1054 30.7071 15.2929C30.8946 15.4804 31 15.7348 31 16ZM23.425 8.575C23.238 8.38753 23.133 8.13355 23.133 7.86875C23.133 7.60395 23.238 7.34997 23.425 7.1625L25.1875 5.3875C25.3818 5.22804 25.6285 5.14654 25.8795 5.15887C26.1306 5.17121 26.3681 5.27648 26.5458 5.45421C26.7235 5.63195 26.8288 5.86944 26.8411 6.12049C26.8535 6.37154 26.772 6.6182 26.6125 6.8125L24.8375 8.575C24.6485 8.75902 24.3951 8.86199 24.1313 8.86199C23.8674 8.86199 23.614 8.75902 23.425 8.575Z" fill="hsl(36, 100%, 99%)"/>
</g>
</svg>
